<?xml version="1.0" encoding="UTF-8"?>
<svg id="Capa_2" data-name="Capa 2" xmlns="http://www.w3.org/2000/svg" viewBox="0 0 553.17 78">
  <defs>
    <style>
      .cls-1 {
        fill: #ef8a2b;
      }

      .cls-2 {
        fill: #f5f9fc;
      }
    </style>
  </defs>
  <g id="_Ñëîé_1" data-name="Ñëîé 1">
    <path class="cls-2" d="M494.17,78h-4c-21.54,0-39-17.46-39-39h0c0-21.54,17.46-39,39-39h4V78Z"/>
    <path class="cls-2" d="M545.17,21h-37c-4.4,0-8-3.6-8-8h0c0-4.4,3.6-8,8-8h37c4.4,0,8,3.6,8,8h0c0,4.4-3.6,8-8,8Z"/>
    <path class="cls-2" d="M545.17,71h-37c-4.4,0-8-3.6-8-8h0c0-4.4,3.6-8,8-8h37c4.4,0,8,3.6,8,8h0c0,4.4-3.6,8-8,8Z"/>
    <g>
      <polygon class="cls-2" points="327.34 28.5 322.24 30.36 334.03 33.6 328.52 38.78 334.03 41.67 328.52 46.52 331.82 49.5 458.67 49.5 458.67 28.5 327.34 28.5"/>
      <polygon class="cls-2" points="232.96 45.71 223.2 42.48 232.96 38.78 225.66 35.21 235.02 28.5 0 28.5 0 49.5 224.08 49.5 232.96 45.71"/>
    </g>
    <polygon class="cls-1" points="236.52 21 229.33 13 232.96 8.72 236.52 21"/>
    <polygon class="cls-1" points="260.95 32.72 268.17 8.72 278.54 14.86 260.95 32.72"/>
    <polygon class="cls-1" points="252.95 46.72 265.11 66.06 259.03 71 252.95 46.72"/>
    <polygon class="cls-1" points="312.37 29.41 291.56 16.98 297.69 9.39 312.37 29.41"/>
    <polygon class="cls-1" points="286.67 71.96 306.58 50.08 296.03 73.69 286.67 71.96"/>
    <polygon class="cls-1" points="303.39 38.44 296.76 49.5 293.21 43.45 303.39 38.44"/>
    <polygon class="cls-1" points="277.4 58.46 267.09 46.92 281.2 51.95 277.4 58.46"/>
    <polygon class="cls-1" points="322.24 46.72 319.17 58.86 325.33 58.86 322.24 46.72"/>
    <polygon class="cls-1" points="236.52 49.5 246.64 63 236.52 63.75 236.52 49.5"/>
    <polygon class="cls-1" points="242.88 30.84 249.88 32.72 242.88 34.61 241 41.6 239.11 34.61 232.12 32.72 239.11 30.84 241 23.84 242.88 30.84"/>
    <polygon class="cls-1" points="325.4 68.38 330.38 69.72 325.4 71.06 324.06 76.05 322.71 71.06 317.73 69.72 322.71 68.38 324.06 63.4 325.4 68.38"/>
    <polygon class="cls-1" points="288.68 24.71 293.66 26.06 288.68 27.4 287.34 32.38 285.99 27.4 281.01 26.06 285.99 24.71 287.34 19.73 288.68 24.71"/>
  </g>
</svg>