<?xml version="1.0" encoding="UTF-8"?>
<svg id="Capa_2" data-name="Capa 2" xmlns="http://www.w3.org/2000/svg" viewBox="0 0 195.3 83.5">
  <defs>
    <style>
      .cls-1 {
        fill: #513b7e;
      }

      .cls-2 {
        fill: #fffefd;
      }

      .cls-3 {
        fill: #f5f9fc;
      }
    </style>
  </defs>
  <g id="_Ñëîé_1" data-name="Ñëîé 1">
    <g>
      <path class="cls-1" d="M67.14,46.47h-8.28v14.86h-8.5v-14.86H26.02l-.53-2.62c.33-1.87,1.03-4.02,2.11-6.45,1.08-2.43,2.39-4.97,3.94-7.61,1.54-2.64,3.24-5.29,5.1-7.96,1.85-2.67,3.71-5.18,5.56-7.54,1.85-2.36,3.63-4.47,5.34-6.34,1.71-1.87,3.2-3.32,4.47-4.36h6.85V39.75h8.28v6.72Zm-16.78-6.72V16.1c0-.52,.03-1.06,.09-1.62-.15,.15-.25,.3-.31,.47-.06,.16-.16,.32-.31,.47-.45,.44-1.05,1.13-1.82,2.05-.77,.92-1.62,2-2.56,3.25-.93,1.25-1.93,2.62-2.98,4.14-1.05,1.51-2.08,3.1-3.07,4.76-.99,1.66-1.94,3.35-2.83,5.07-.89,1.72-1.66,3.41-2.31,5.07h16.11Z"/>
      <path class="cls-1" d="M114.14,32.37c0,4.66-.45,8.83-1.36,12.53-.91,3.69-2.22,6.82-3.94,9.37-1.72,2.55-3.82,4.5-6.3,5.85-2.48,1.35-5.29,2.02-8.43,2.02s-5.86-.63-8.23-1.89c-2.37-1.26-4.36-3.1-5.96-5.52-1.6-2.42-2.81-5.39-3.63-8.92-.82-3.53-1.22-7.56-1.22-12.1,0-4.92,.41-9.29,1.22-13.1,.82-3.81,2.06-7.02,3.74-9.63,1.68-2.61,3.77-4.59,6.3-5.94,2.52-1.35,5.47-2.02,8.85-2.02,12.64,0,18.96,9.79,18.96,29.37Zm-8.72,.62c0-7.74-.89-13.53-2.67-17.38-1.78-3.84-4.39-5.76-7.83-5.76-3.68,0-6.45,1.95-8.32,5.85-1.87,3.9-2.8,9.81-2.8,17.73,0,7.3,.92,12.76,2.76,16.38,1.84,3.62,4.54,5.43,8.1,5.43s6.21-1.84,8.03-5.52c1.82-3.68,2.74-9.25,2.74-16.73Z"/>
      <path class="cls-1" d="M163.71,46.47h-8.28v14.86h-8.5v-14.86h-24.34l-.53-2.62c.33-1.87,1.03-4.02,2.11-6.45s2.4-4.97,3.94-7.61c1.54-2.64,3.24-5.29,5.09-7.96,1.85-2.67,3.71-5.18,5.56-7.54,1.85-2.36,3.63-4.47,5.34-6.34,1.71-1.87,3.2-3.32,4.47-4.36h6.85V39.75h8.28v6.72Zm-16.78-6.72V16.1c0-.52,.03-1.06,.09-1.62-.15,.15-.25,.3-.31,.47-.06,.16-.16,.32-.31,.47-.45,.44-1.05,1.13-1.82,2.05-.77,.92-1.62,2-2.56,3.25-.93,1.25-1.93,2.62-2.98,4.14-1.05,1.51-2.08,3.1-3.07,4.76-.99,1.66-1.94,3.35-2.83,5.07-.89,1.72-1.66,3.41-2.31,5.07h16.11Z"/>
    </g>
    <g>
      <path class="cls-3" d="M64.8,43.47h-8.28v14.86h-8.5v-14.86H23.69l-.53-2.62c.33-1.87,1.03-4.02,2.11-6.45,1.08-2.43,2.39-4.97,3.94-7.61,1.54-2.64,3.24-5.29,5.1-7.96,1.85-2.67,3.71-5.18,5.56-7.54,1.85-2.36,3.63-4.47,5.34-6.34,1.71-1.87,3.2-3.32,4.47-4.36h6.85V36.75h8.28v6.72Zm-16.78-6.72V13.1c0-.52,.03-1.06,.09-1.62-.15,.15-.25,.3-.31,.47-.06,.16-.16,.32-.31,.47-.45,.44-1.05,1.13-1.82,2.05-.77,.92-1.62,2-2.56,3.25-.93,1.25-1.93,2.62-2.98,4.14-1.05,1.51-2.08,3.1-3.07,4.76-.99,1.66-1.94,3.35-2.83,5.07-.89,1.72-1.66,3.41-2.31,5.07h16.11Z"/>
      <path class="cls-3" d="M111.8,29.37c0,4.66-.45,8.83-1.36,12.53-.91,3.69-2.22,6.82-3.94,9.37-1.72,2.55-3.82,4.5-6.3,5.85-2.48,1.35-5.29,2.02-8.43,2.02s-5.86-.63-8.23-1.89c-2.37-1.26-4.36-3.1-5.96-5.52-1.6-2.42-2.81-5.39-3.63-8.92-.82-3.53-1.22-7.56-1.22-12.1,0-4.92,.41-9.29,1.22-13.1,.82-3.81,2.06-7.02,3.74-9.63,1.68-2.61,3.77-4.59,6.3-5.94,2.52-1.35,5.47-2.02,8.85-2.02,12.64,0,18.96,9.79,18.96,29.37Zm-8.72,.62c0-7.74-.89-13.53-2.67-17.38-1.78-3.84-4.39-5.76-7.83-5.76-3.68,0-6.45,1.95-8.32,5.85-1.87,3.9-2.8,9.81-2.8,17.73,0,7.3,.92,12.76,2.76,16.38,1.84,3.62,4.54,5.43,8.1,5.43s6.21-1.84,8.03-5.52c1.82-3.68,2.74-9.25,2.74-16.73Z"/>
      <path class="cls-3" d="M161.38,43.47h-8.28v14.86h-8.5v-14.86h-24.34l-.53-2.62c.33-1.87,1.03-4.02,2.11-6.45s2.4-4.97,3.94-7.61c1.54-2.64,3.24-5.29,5.09-7.96,1.85-2.67,3.71-5.18,5.56-7.54,1.85-2.36,3.63-4.47,5.34-6.34,1.71-1.87,3.2-3.32,4.47-4.36h6.85V36.75h8.28v6.72Zm-16.78-6.72V13.1c0-.52,.03-1.06,.09-1.62-.15,.15-.25,.3-.31,.47-.06,.16-.16,.32-.31,.47-.45,.44-1.05,1.13-1.82,2.05-.77,.92-1.62,2-2.56,3.25-.93,1.25-1.93,2.62-2.98,4.14-1.05,1.51-2.08,3.1-3.07,4.76-.99,1.66-1.94,3.35-2.83,5.07-.89,1.72-1.66,3.41-2.31,5.07h16.11Z"/>
    </g>
    <g>
      <path class="cls-2" d="M14.1,68.99l-3.07,10.86h-1.49l-2.23-7.94c-.1-.34-.15-.71-.17-1.1h-.03c-.03,.37-.1,.74-.2,1.09l-2.25,7.95h-1.48l-3.18-10.86H1.4l2.31,8.33c.1,.35,.16,.71,.18,1.09h.04c.02-.27,.1-.63,.23-1.09l2.4-8.33h1.22l2.3,8.39c.08,.29,.14,.63,.18,1.01h.03c.02-.26,.09-.61,.2-1.04l2.22-8.36h1.38Z"/>
      <path class="cls-2" d="M22.37,79.85h-1.24v-4.47c0-1.62-.6-2.42-1.8-2.42-.61,0-1.12,.23-1.53,.7-.41,.47-.62,1.07-.62,1.8v4.39h-1.24v-11.48h1.24v5.01h.03c.59-.98,1.44-1.47,2.54-1.47,1.75,0,2.62,1.05,2.62,3.16v4.78Z"/>
      <path class="cls-2" d="M28.33,80.03c-1.15,0-2.06-.36-2.74-1.09-.68-.72-1.03-1.68-1.03-2.88,0-1.3,.36-2.32,1.07-3.05,.71-.73,1.67-1.1,2.88-1.1s2.06,.36,2.71,1.07c.65,.71,.97,1.7,.97,2.96s-.35,2.23-1.05,2.97c-.7,.75-1.64,1.12-2.81,1.12Zm.09-7.07c-.8,0-1.43,.27-1.89,.81-.46,.54-.7,1.29-.7,2.25s.23,1.64,.7,2.17c.47,.53,1.1,.79,1.89,.79s1.42-.26,1.85-.78c.43-.52,.65-1.26,.65-2.22s-.22-1.72-.65-2.24c-.43-.53-1.05-.79-1.85-.79Z"/>
      <path class="cls-2" d="M37.81,80.03c-1.15,0-2.06-.36-2.74-1.09-.68-.72-1.03-1.68-1.03-2.88,0-1.3,.36-2.32,1.07-3.05,.71-.73,1.67-1.1,2.88-1.1s2.06,.36,2.71,1.07c.65,.71,.97,1.7,.97,2.96s-.35,2.23-1.05,2.97c-.7,.75-1.64,1.12-2.81,1.12Zm.09-7.07c-.8,0-1.43,.27-1.89,.81-.46,.54-.7,1.29-.7,2.25s.23,1.64,.7,2.17c.47,.53,1.1,.79,1.89,.79s1.42-.26,1.85-.78c.43-.52,.65-1.26,.65-2.22s-.22-1.72-.65-2.24c-.43-.53-1.05-.79-1.85-.79Z"/>
      <path class="cls-2" d="M45.31,78.73h-.03v4.69h-1.24v-11.32h1.24v1.36h.03c.61-1.03,1.5-1.54,2.68-1.54,1,0,1.78,.35,2.34,1.04,.56,.69,.84,1.62,.84,2.79,0,1.3-.32,2.34-.95,3.12-.63,.78-1.5,1.17-2.59,1.17-1,0-1.78-.43-2.32-1.3Zm-.03-3.13v1.08c0,.64,.21,1.19,.62,1.63,.42,.45,.95,.67,1.59,.67,.75,0,1.34-.29,1.77-.86s.64-1.38,.64-2.4c0-.86-.2-1.54-.6-2.03-.4-.49-.94-.74-1.62-.74-.72,0-1.3,.25-1.74,.75-.44,.5-.66,1.13-.66,1.89Z"/>
      <path class="cls-2" d="M53.08,79.57v-1.33c.68,.5,1.42,.75,2.23,.75,1.09,0,1.63-.36,1.63-1.09,0-.21-.05-.38-.14-.53-.09-.14-.22-.27-.38-.38-.16-.11-.35-.21-.56-.3-.21-.09-.45-.18-.69-.28-.34-.14-.64-.27-.91-.41-.26-.14-.48-.29-.65-.47-.17-.17-.31-.37-.39-.59-.09-.22-.13-.48-.13-.78,0-.36,.08-.68,.25-.96,.17-.28,.39-.51,.67-.7,.28-.19,.59-.33,.95-.43s.72-.14,1.1-.14c.67,0,1.27,.12,1.8,.35v1.26c-.57-.37-1.23-.56-1.97-.56-.23,0-.44,.03-.63,.08-.19,.05-.35,.13-.48,.22-.13,.1-.24,.21-.31,.34-.07,.13-.11,.28-.11,.44,0,.2,.04,.37,.11,.51,.07,.14,.18,.26,.32,.36,.14,.11,.31,.2,.52,.29,.2,.09,.43,.18,.69,.28,.34,.13,.65,.27,.92,.41,.27,.14,.5,.29,.7,.47,.19,.17,.34,.37,.44,.6,.1,.23,.16,.5,.16,.81,0,.38-.08,.72-.25,1-.17,.28-.39,.52-.68,.7-.28,.19-.61,.33-.98,.42-.37,.09-.75,.14-1.16,.14-.8,0-1.49-.15-2.08-.46Z"/>
      <path class="cls-2" d="M60.95,80.02c-.23,0-.43-.08-.59-.25-.16-.17-.25-.37-.25-.6s.08-.43,.25-.6c.16-.17,.36-.25,.59-.25s.44,.08,.61,.25c.17,.17,.25,.37,.25,.6s-.08,.43-.25,.6-.37,.25-.61,.25Z"/>
      <path class="cls-2" d="M64.69,80.02c-.23,0-.43-.08-.59-.25-.16-.17-.25-.37-.25-.6s.08-.43,.25-.6c.16-.17,.36-.25,.59-.25s.44,.08,.61,.25c.17,.17,.25,.37,.25,.6s-.08,.43-.25,.6-.37,.25-.61,.25Z"/>
      <path class="cls-2" d="M68.44,80.02c-.23,0-.43-.08-.59-.25-.16-.17-.25-.37-.25-.6s.08-.43,.25-.6c.16-.17,.36-.25,.59-.25s.44,.08,.61,.25c.17,.17,.25,.37,.25,.6s-.08,.43-.25,.6-.37,.25-.61,.25Z"/>
      <path class="cls-2" d="M73.2,75.75v4.1h-1.27v-10.86h2.98c1.16,0,2.06,.28,2.7,.85,.64,.57,.96,1.36,.96,2.39s-.35,1.87-1.06,2.53c-.71,.66-1.67,.98-2.87,.98h-1.43Zm0-5.6v4.45h1.33c.88,0,1.55-.2,2.01-.6,.46-.4,.69-.97,.69-1.7,0-1.43-.85-2.15-2.54-2.15h-1.49Z"/>
      <path class="cls-2" d="M85.88,79.85h-1.24v-1.21h-.03c-.54,.93-1.34,1.39-2.39,1.39-.77,0-1.38-.2-1.81-.61-.44-.41-.65-.95-.65-1.63,0-1.45,.85-2.29,2.56-2.53l2.33-.33c0-1.32-.53-1.98-1.6-1.98-.93,0-1.78,.32-2.53,.95v-1.27c.76-.48,1.64-.73,2.63-.73,1.82,0,2.73,.96,2.73,2.89v5.04Zm-1.24-3.92l-1.87,.26c-.58,.08-1.01,.22-1.3,.43-.29,.21-.44,.57-.44,1.09,0,.38,.14,.69,.41,.93,.27,.24,.63,.36,1.08,.36,.62,0,1.12-.22,1.53-.65,.4-.43,.6-.98,.6-1.64v-.77Z"/>
      <path class="cls-2" d="M95.23,79.23c0,2.85-1.36,4.27-4.09,4.27-.96,0-1.8-.18-2.51-.54v-1.24c.87,.49,1.71,.73,2.5,.73,1.91,0,2.86-1.01,2.86-3.04v-.85h-.03c-.59,.99-1.48,1.48-2.66,1.48-.96,0-1.74-.34-2.33-1.03-.59-.69-.88-1.61-.88-2.78,0-1.32,.32-2.36,.95-3.14,.63-.78,1.5-1.17,2.6-1.17s1.82,.42,2.32,1.26h.03v-1.08h1.24v7.13Zm-1.24-2.88v-1.14c0-.62-.21-1.14-.62-1.58-.42-.44-.93-.66-1.56-.66-.77,0-1.37,.28-1.8,.84-.43,.56-.65,1.34-.65,2.34,0,.86,.21,1.55,.62,2.07,.42,.52,.97,.78,1.65,.78s1.26-.25,1.7-.74c.44-.49,.66-1.13,.66-1.9Z"/>
      <path class="cls-2" d="M104.36,76.28h-5.47c.02,.86,.25,1.53,.7,2,.44,.47,1.05,.7,1.83,.7,.87,0,1.68-.29,2.41-.86v1.17c-.68,.5-1.58,.74-2.7,.74s-1.96-.35-2.58-1.06c-.63-.7-.94-1.69-.94-2.97,0-1.21,.34-2.19,1.03-2.95,.68-.76,1.53-1.14,2.55-1.14s1.8,.33,2.35,.98c.56,.66,.83,1.57,.83,2.73v.65Zm-1.27-1.05c0-.72-.18-1.27-.52-1.67-.34-.4-.81-.6-1.42-.6s-1.08,.21-1.49,.63c-.41,.42-.66,.97-.76,1.64h4.19Z"/>
      <path class="cls-2" d="M120.18,79.85h-1.56l-5.59-8.65c-.14-.22-.26-.44-.35-.68h-.05c.04,.23,.06,.73,.06,1.49v7.84h-1.27v-10.86h1.65l5.44,8.52c.23,.35,.37,.6,.44,.73h.03c-.05-.31-.08-.85-.08-1.6v-7.65h1.27v10.86Z"/>
      <path class="cls-2" d="M126.49,80.03c-1.15,0-2.06-.36-2.74-1.09-.68-.72-1.03-1.68-1.03-2.88,0-1.3,.36-2.32,1.07-3.05,.71-.73,1.67-1.1,2.88-1.1s2.06,.36,2.71,1.07c.65,.71,.97,1.7,.97,2.96s-.35,2.23-1.05,2.97c-.7,.75-1.64,1.12-2.81,1.12Zm.09-7.07c-.8,0-1.43,.27-1.89,.81-.46,.54-.7,1.29-.7,2.25s.23,1.64,.7,2.17c.47,.53,1.1,.79,1.89,.79s1.42-.26,1.85-.78c.43-.52,.65-1.26,.65-2.22s-.22-1.72-.65-2.24c-.43-.53-1.05-.79-1.85-.79Z"/>
      <path class="cls-2" d="M136.32,79.77c-.29,.16-.68,.24-1.16,.24-1.36,0-2.04-.76-2.04-2.27v-4.59h-1.33v-1.06h1.33v-1.89l1.24-.4v2.29h1.95v1.06h-1.95v4.37c0,.52,.09,.89,.26,1.11,.18,.22,.47,.33,.88,.33,.31,0,.58-.09,.81-.26v1.06Z"/>
      <path class="cls-2" d="M148.68,70.14h-4.24v3.76h3.92v1.14h-3.92v4.81h-1.27v-10.86h5.51v1.15Z"/>
      <path class="cls-2" d="M154.2,80.03c-1.15,0-2.06-.36-2.74-1.09-.68-.72-1.03-1.68-1.03-2.88,0-1.3,.36-2.32,1.07-3.05,.71-.73,1.67-1.1,2.88-1.1s2.06,.36,2.71,1.07c.65,.71,.97,1.7,.97,2.96s-.35,2.23-1.05,2.97c-.7,.75-1.64,1.12-2.81,1.12Zm.09-7.07c-.8,0-1.43,.27-1.89,.81-.46,.54-.7,1.29-.7,2.25s.23,1.64,.7,2.17c.47,.53,1.1,.79,1.89,.79s1.42-.26,1.85-.78c.43-.52,.65-1.26,.65-2.22s-.22-1.72-.65-2.24c-.43-.53-1.05-.79-1.85-.79Z"/>
      <path class="cls-2" d="M166.7,79.85h-1.24v-1.23h-.03c-.51,.94-1.31,1.41-2.39,1.41-1.85,0-2.77-1.1-2.77-3.3v-4.63h1.23v4.44c0,1.64,.63,2.45,1.88,2.45,.61,0,1.1-.22,1.5-.67,.39-.45,.59-1.03,.59-1.75v-4.47h1.24v7.75Z"/>
      <path class="cls-2" d="M176.03,79.85h-1.24v-4.42c0-1.65-.6-2.47-1.8-2.47-.62,0-1.13,.23-1.54,.7-.41,.47-.61,1.06-.61,1.77v4.42h-1.24v-7.75h1.24v1.29h.03c.58-.98,1.43-1.47,2.54-1.47,.85,0,1.5,.27,1.95,.82,.45,.55,.67,1.34,.67,2.37v4.74Z"/>
      <path class="cls-2" d="M185.38,79.85h-1.24v-1.32h-.03c-.58,1-1.46,1.5-2.67,1.5-.97,0-1.75-.35-2.34-1.04s-.87-1.64-.87-2.84c0-1.28,.32-2.31,.97-3.08,.65-.77,1.51-1.16,2.58-1.16s1.84,.42,2.32,1.26h.03v-4.8h1.24v11.48Zm-1.24-3.51v-1.14c0-.62-.21-1.16-.62-1.59-.41-.43-.94-.65-1.58-.65-.76,0-1.35,.28-1.79,.83-.43,.56-.65,1.32-.65,2.3,0,.89,.21,1.6,.62,2.12,.42,.52,.97,.78,1.68,.78s1.25-.25,1.68-.75c.43-.5,.65-1.13,.65-1.89Z"/>
      <path class="cls-2" d="M188.71,73.61c-.23,0-.43-.08-.59-.25-.16-.17-.25-.37-.25-.6s.08-.43,.25-.59c.16-.16,.36-.24,.59-.24s.44,.08,.61,.24c.17,.16,.25,.36,.25,.59s-.08,.43-.25,.6c-.17,.17-.37,.25-.61,.25Zm0,6.41c-.23,0-.43-.08-.59-.25-.16-.17-.25-.37-.25-.6s.08-.43,.25-.6c.16-.17,.36-.25,.59-.25s.44,.08,.61,.25c.17,.17,.25,.37,.25,.6s-.08,.43-.25,.6-.37,.25-.61,.25Z"/>
      <path class="cls-2" d="M195.29,82.32h-1.11c-1.56-1.79-2.35-3.99-2.35-6.61s.78-4.87,2.35-6.72h1.12c-1.59,1.92-2.38,4.15-2.38,6.7s.79,4.74,2.36,6.63Z"/>
    </g>
  </g>
</svg>